<svg width="21" height="19" viewBox="0 0 21 19" fill="none" xmlns="http://www.w3.org/2000/svg">
<path d="M4.03354 4.5H17.9777C18.2603 4.50001 18.5397 4.55857 18.7979 4.67191C19.0562 4.78524 19.2876 4.95083 19.4771 5.15801C19.6667 5.36519 19.8103 5.60936 19.8986 5.87478C19.987 6.14019 20.0181 6.42097 19.99 6.699L19.3833 12.699C19.3334 13.1925 19.0998 13.6501 18.728 13.9829C18.3561 14.3157 17.8725 14.5 17.371 14.5H7.71424C7.24654 14.5002 6.79323 14.34 6.4315 14.0469C6.06977 13.7537 5.82197 13.3456 5.7303 12.892L4.03354 4.5ZM4.03354 4.5L3.21448 1.257C3.15971 1.04075 3.03344 0.848809 2.85573 0.711655C2.67802 0.574502 2.45906 0.500006 2.23364 0.5H1M7.06708 18.5C7.85686 18.5 8.29966 18.5 9.08944 18.5V18H7.06708V18.5ZM15.1565 18.5H17.1789V18H15.1565V18.5Z" stroke="black" stroke-linecap="round" stroke-linejoin="round"/>
</svg>
