<svg width="79" height="79" viewBox="0 0 79 79" fill="none" xmlns="http://www.w3.org/2000/svg">
<path fill-rule="evenodd" clip-rule="evenodd" d="M52.0793 0.814536C52.3368 0.55634 52.6428 0.351489 52.9796 0.211718C53.3165 0.0719461 53.6776 0 54.0422 0C54.4069 0 54.768 0.0719461 55.1049 0.211718C55.4417 0.351489 55.7476 0.55634 56.0052 0.814536L78.1855 22.9948C78.4437 23.2524 78.6485 23.5583 78.7883 23.8951C78.9281 24.232 79 24.5931 79 24.9578C79 25.3224 78.9281 25.6835 78.7883 26.0204C78.6485 26.3572 78.4437 26.6632 78.1855 26.9207L67.6387 37.4674L63.0419 55.8382C62.6923 57.2371 61.9851 58.521 60.9897 59.5641C59.9942 60.6072 58.7447 61.3736 57.3637 61.7881L0 79L17.2119 21.6307C17.6268 20.2514 18.3927 19.0035 19.4347 18.0092C20.4767 17.0148 21.759 16.308 23.1562 15.9581L41.527 11.3668L52.0793 0.814536ZM42.0982 16.9396L24.5037 21.3368C24.0366 21.4534 23.608 21.6896 23.2599 22.0221C22.9118 22.3546 22.6563 22.772 22.5185 23.2332L8.2677 70.7268L55.7723 56.4759C56.2308 56.337 56.6455 56.0816 56.9759 55.7347C57.3063 55.3877 57.5412 54.9611 57.6576 54.4963L62.0604 36.8963L42.0982 16.934V16.9396Z" fill="white"/>
<path fill-rule="evenodd" clip-rule="evenodd" d="M8.75007 70.5825L37.407 47.138C38.5037 47.138 39.5758 46.8128 40.4877 46.2035C41.3995 45.5942 42.1103 44.7282 42.53 43.7149C42.9496 42.7017 43.0595 41.5868 42.8455 40.5111C42.6315 39.4355 42.1034 38.4475 41.3279 37.672C40.5524 36.8965 39.5644 36.3684 38.4888 36.1544C37.4131 35.9404 36.2982 36.0503 35.285 36.4699C34.2717 36.8896 33.4057 37.6004 32.7964 38.5122C32.1871 39.4241 31.8619 40.4962 31.8619 41.5929L8.41737 70.2498L8.27319 70.7267L8.75007 70.5825Z" fill="white"/>
</svg>
