<svg width="87" height="82" viewBox="0 0 87 82" fill="none" xmlns="http://www.w3.org/2000/svg">
<path d="M15.2518 19.3333H76.1658C77.4001 19.3334 78.6206 19.5871 79.7488 20.0783C80.877 20.5694 81.8878 21.287 82.716 22.1847C83.5441 23.0825 84.1714 24.1406 84.5572 25.2907C84.9431 26.4408 85.079 27.6575 84.9562 28.8623L82.3058 54.8623C82.0878 57.0009 81.0676 58.9837 79.4433 60.4258C77.8189 61.868 75.7063 62.6666 73.5155 62.6667H31.3306C29.2875 62.6675 27.3073 61.9735 25.7271 60.7031C24.1469 59.4326 23.0644 57.6641 22.6639 55.6987L15.2518 19.3333ZM15.2518 19.3333L11.6738 5.28033C11.4345 4.34326 10.8829 3.5115 10.1066 2.91717C9.33028 2.32284 8.37379 2.00003 7.38906 2H2M28.5036 80C31.9537 80 33.888 80 37.3381 80V77.8333H28.5036V80ZM63.8417 80H72.6762V77.8333H63.8417V80Z" stroke="white" stroke-width="4" stroke-linecap="round" stroke-linejoin="round"/>
</svg>
