<svg width="114" height="40" viewBox="0 0 114 40" fill="none" xmlns="http://www.w3.org/2000/svg">
<path d="M4.54102 13.877C5.0293 13.877 5.48177 13.8053 5.89844 13.6621C6.32161 13.5124 6.66992 13.3236 6.94336 13.0957C7.2168 12.8613 7.4349 12.64 7.59766 12.4316C7.76693 12.2168 7.90039 12.0052 7.99805 11.7969H9.69727C9.26107 12.8516 8.59049 13.6979 7.68555 14.3359C6.7806 14.9674 5.7194 15.2832 4.50195 15.2832C2.95247 15.2832 1.81641 14.7624 1.09375 13.7207C0.371094 12.679 0.172526 11.3314 0.498047 9.67773C0.823568 8.0306 1.50391 6.76107 2.53906 5.86914C3.58073 4.9707 4.84701 4.52148 6.33789 4.52148C7.93294 4.52148 9.03971 5.03581 9.6582 6.06445C10.2832 7.0931 10.4102 8.5319 10.0391 10.3809H1.98242C1.85872 11.0124 1.86198 11.5885 1.99219 12.1094C2.1224 12.6237 2.4056 13.0469 2.8418 13.3789C3.27799 13.7109 3.8444 13.877 4.54102 13.877ZM6.24023 5.91797C5.27669 5.91797 4.41081 6.2207 3.64258 6.82617C2.88086 7.42513 2.41862 8.14453 2.25586 8.98438H8.74023C8.90951 8.07292 8.77604 7.33398 8.33984 6.76758C7.91016 6.20117 7.21029 5.91797 6.24023 5.91797ZM12.0309 4.80469H13.9156L15.7906 8.70117H15.8297L19.2379 4.80469H21.152L16.5719 9.77539L19.5113 15H17.6363L15.4488 10.8398H15.4098L11.6109 15H9.69687L14.6578 9.77539L12.0309 4.80469ZM23.9738 0.703125H25.5754L22.7922 15H21.1906L23.9738 0.703125ZM34.1395 4.80469H35.741L33.7391 15H32.1375L32.4012 13.7793L32.3621 13.8184C31.965 14.235 31.4637 14.5833 30.8582 14.8633C30.2527 15.1432 29.5594 15.2832 28.7781 15.2832C28.2898 15.2832 27.8504 15.2148 27.4598 15.0781C27.0757 14.9414 26.7469 14.7331 26.4734 14.4531C26.2 14.1667 26.0145 13.8086 25.9168 13.3789C25.8257 12.9492 25.8322 12.4414 25.9363 11.8555L27.323 4.80469H28.9246L27.5965 11.582C27.4533 12.2852 27.5118 12.8451 27.7723 13.2617C28.0327 13.6719 28.534 13.877 29.2762 13.877C30.1876 13.877 30.9819 13.6165 31.659 13.0957C32.3361 12.5684 32.7495 11.9043 32.8992 11.1035L34.1395 4.80469ZM41.4047 9.02344C41.613 9.08203 41.7986 9.14062 41.9613 9.19922C42.1306 9.2513 42.3129 9.31315 42.5082 9.38477C42.71 9.45638 42.8858 9.53125 43.0355 9.60938C43.1918 9.6875 43.3546 9.77539 43.5238 9.87305C43.6931 9.9707 43.8363 10.0749 43.9535 10.1855C44.0772 10.2962 44.1977 10.4199 44.3148 10.5566C44.432 10.6868 44.5232 10.8333 44.5883 10.9961C44.6599 11.1523 44.7185 11.3216 44.7641 11.5039C44.8096 11.6797 44.8292 11.875 44.8227 12.0898C44.8227 12.2982 44.7966 12.5228 44.7445 12.7637C44.5622 13.6165 44.1163 14.2513 43.4066 14.668C42.697 15.0781 41.8376 15.2832 40.8285 15.2832C39.3832 15.2832 38.2504 14.9479 37.4301 14.2773C36.6163 13.6003 36.2094 12.7279 36.2094 11.6602H37.7914C37.7914 12.2982 38.0421 12.8288 38.5434 13.252C39.0512 13.6686 39.8454 13.877 40.9262 13.877C41.5902 13.877 42.1111 13.7598 42.4887 13.5254C42.8728 13.2845 43.1006 12.9688 43.1723 12.5781C43.1983 12.4414 43.2113 12.3112 43.2113 12.1875C43.2178 12.0638 43.2048 11.9499 43.1723 11.8457C43.1462 11.7415 43.1137 11.6471 43.0746 11.5625C43.0355 11.4714 42.977 11.3867 42.8988 11.3086C42.8207 11.2305 42.7426 11.1621 42.6645 11.1035C42.5928 11.0384 42.4952 10.9766 42.3715 10.918C42.2543 10.8594 42.1436 10.8073 42.0395 10.7617C41.9418 10.7161 41.8148 10.6673 41.6586 10.6152C41.5089 10.5632 41.3721 10.5208 41.2484 10.4883C41.1312 10.4492 40.9848 10.4069 40.809 10.3613C40.4379 10.2572 40.1156 10.1595 39.8422 10.0684C39.5687 9.9707 39.2465 9.82096 38.8754 9.61914C38.5108 9.41081 38.2211 9.18294 38.0062 8.93555C37.7914 8.68815 37.6254 8.36914 37.5082 7.97852C37.391 7.58138 37.378 7.14193 37.4691 6.66016C37.5993 5.98958 37.9965 5.46549 38.6605 5.08789C39.3246 4.71029 40.1937 4.52148 41.268 4.52148C42.4984 4.52148 43.462 4.82747 44.1586 5.43945C44.8617 6.04492 45.2133 6.78385 45.2133 7.65625H43.6508C43.6508 7.19401 43.4522 6.79036 43.0551 6.44531C42.6579 6.09375 42.0297 5.91797 41.1703 5.91797C40.5388 5.91797 40.0342 6.01562 39.6566 6.21094C39.279 6.39974 39.0642 6.66341 39.0121 7.00195C38.9665 7.30794 38.9861 7.57161 39.0707 7.79297C39.1618 8.00781 39.3279 8.1901 39.5687 8.33984C39.8096 8.48307 40.0505 8.60026 40.2914 8.69141C40.5388 8.77604 40.8708 8.87695 41.2875 8.99414C41.3396 9.00716 41.3786 9.01693 41.4047 9.02344ZM49.6367 2.82227C49.3633 2.82227 49.1322 2.72135 48.9434 2.51953C48.7546 2.31771 48.6862 2.05729 48.7383 1.73828C48.7904 1.47786 48.9271 1.27279 49.1484 1.12305C49.3698 0.973307 49.5944 0.898438 49.8223 0.898438C50.0957 0.898438 50.3268 0.999349 50.5156 1.20117C50.7044 1.40299 50.7663 1.66341 50.7012 1.98242C50.6556 2.24284 50.5221 2.44792 50.3008 2.59766C50.0859 2.7474 49.8646 2.82227 49.6367 2.82227ZM48.3574 4.80469H49.959L47.957 15H46.3652L48.3574 4.80469ZM51.5992 4.80469H53.318L54.4801 13.3984L58.982 4.80469H60.7398L55.1051 15H53.2789L51.5992 4.80469ZM64.7043 13.877C65.1926 13.877 65.6451 13.8053 66.0617 13.6621C66.4849 13.5124 66.8332 13.3236 67.1066 13.0957C67.3801 12.8613 67.5982 12.64 67.7609 12.4316C67.9302 12.2168 68.0637 12.0052 68.1613 11.7969H69.8605C69.4243 12.8516 68.7538 13.6979 67.8488 14.3359C66.9439 14.9674 65.8827 15.2832 64.6652 15.2832C63.1158 15.2832 61.9797 14.7624 61.257 13.7207C60.5344 12.679 60.3358 11.3314 60.6613 9.67773C60.9868 8.0306 61.6672 6.76107 62.7023 5.86914C63.744 4.9707 65.0103 4.52148 66.5012 4.52148C68.0962 4.52148 69.203 5.03581 69.8215 6.06445C70.4465 7.0931 70.5734 8.5319 70.2023 10.3809H62.1457C62.022 11.0124 62.0253 11.5885 62.1555 12.1094C62.2857 12.6237 62.5689 13.0469 63.0051 13.3789C63.4413 13.7109 64.0077 13.877 64.7043 13.877ZM66.4035 5.91797C65.44 5.91797 64.5741 6.2207 63.8059 6.82617C63.0441 7.42513 62.5819 8.14453 62.4191 8.98438H68.9035C69.0728 8.07292 68.9393 7.33398 68.5031 6.76758C68.0734 6.20117 67.3736 5.91797 66.4035 5.91797ZM8.62305 32.5352C8.6556 32.2031 8.64258 31.8906 8.58398 31.5977C8.5319 31.3047 8.42448 31.028 8.26172 30.7676C8.09896 30.5072 7.84831 30.3021 7.50977 30.1523C7.17773 29.9961 6.77409 29.918 6.29883 29.918C5.70638 29.918 5.15951 30.0352 4.6582 30.2695C4.16341 30.4974 3.74349 30.8066 3.39844 31.1973C3.0599 31.5814 2.77995 32.0078 2.55859 32.4766C2.33724 32.9388 2.17773 33.4271 2.08008 33.9414C2.02148 34.319 1.98568 34.6934 1.97266 35.0645C1.95964 35.4355 2.00846 35.7904 2.11914 36.1289C2.22982 36.4674 2.37956 36.7669 2.56836 37.0273C2.75716 37.2878 3.02409 37.4961 3.36914 37.6523C3.71419 37.8021 4.11784 37.877 4.58008 37.877C5.08138 37.877 5.54036 37.7956 5.95703 37.6328C6.38021 37.4701 6.72852 37.2585 7.00195 36.998C7.27539 36.7311 7.49674 36.4577 7.66602 36.1777C7.8418 35.8913 7.97201 35.5983 8.05664 35.2988H9.6582C9.35872 36.4642 8.72721 37.4212 7.76367 38.1699C6.80664 38.9121 5.71289 39.2832 4.48242 39.2832C2.97852 39.2832 1.85872 38.7754 1.12305 37.7598C0.39388 36.7376 0.192057 35.4095 0.517578 33.7754C0.823568 32.1999 1.51367 30.9303 2.58789 29.9668C3.66211 29.0033 4.93164 28.5215 6.39648 28.5215C7.65299 28.5215 8.61979 28.8991 9.29688 29.6543C9.98047 30.4095 10.2734 31.3698 10.1758 32.5352H8.62305ZM20.2437 31.8027L19.2867 36.7637C19.2346 37.0306 19.2118 37.2487 19.2184 37.418C19.2249 37.5872 19.303 37.7077 19.4527 37.7793C19.609 37.8444 19.8596 37.8574 20.2047 37.8184L19.9898 38.9023C19.6513 39.0326 19.3518 39.0977 19.0914 39.0977C18.5966 39.0977 18.2223 38.9967 17.9684 38.7949C17.7145 38.5931 17.5745 38.235 17.5484 37.7207C16.5914 38.7624 15.3382 39.2832 13.7887 39.2832C12.7405 39.2832 11.9592 39 11.4449 38.4336C10.9306 37.8607 10.7646 37.0957 10.9469 36.1387C11.0055 35.8392 11.0966 35.5658 11.2203 35.3184C11.344 35.071 11.4775 34.8561 11.6207 34.6738C11.7704 34.4915 11.969 34.3223 12.2164 34.166C12.4638 34.0098 12.6949 33.8796 12.9098 33.7754C13.1311 33.6712 13.4208 33.5638 13.7789 33.4531C14.1435 33.3424 14.4625 33.2546 14.7359 33.1895C15.0159 33.1243 15.387 33.0397 15.8492 32.9355C16.2724 32.8444 16.6012 32.7695 16.8355 32.7109C17.0764 32.6458 17.3271 32.5677 17.5875 32.4766C17.8479 32.3789 18.0432 32.2812 18.1734 32.1836C18.3102 32.0794 18.4306 31.9525 18.5348 31.8027C18.6389 31.653 18.7105 31.4772 18.7496 31.2754C18.8277 30.8522 18.7464 30.5202 18.5055 30.2793C18.2646 30.0384 17.773 29.918 17.0309 29.918C16.0543 29.918 15.3284 30.0807 14.8531 30.4062C14.3844 30.7253 14.0491 31.2624 13.8473 32.0176H12.2652C12.5191 30.9238 13.0432 30.0677 13.8375 29.4492C14.6318 28.8307 15.7288 28.5215 17.1285 28.5215C17.6493 28.5215 18.1148 28.5801 18.525 28.6973C18.9352 28.8079 19.2932 28.987 19.5992 29.2344C19.9117 29.4818 20.1266 29.8236 20.2437 30.2598C20.3609 30.696 20.3609 31.2103 20.2437 31.8027ZM18.027 34.9961L18.3883 33.4043C18.1148 33.6387 17.2945 33.8958 15.9273 34.1758C14.8336 34.3971 14.0165 34.6608 13.4762 34.9668C12.9423 35.2728 12.6266 35.6895 12.5289 36.2168C12.4312 36.7376 12.5191 37.1445 12.7926 37.4375C13.0725 37.7305 13.4892 37.877 14.0426 37.877C15.0517 37.877 15.9143 37.6328 16.6305 37.1445C17.3466 36.6497 17.8121 35.9336 18.027 34.9961ZM24.4035 24.7031H26.0051L23.2219 39H21.6203L24.4035 24.7031ZM28.4754 24.7031H30.077L27.2938 39H25.6922L28.4754 24.7031ZM34.1781 39.2832C32.6612 39.2832 31.5609 38.8014 30.8773 37.8379C30.1938 36.8743 30.0017 35.6016 30.3012 34.0195C30.6137 32.3789 31.3266 31.054 32.4398 30.0449C33.5596 29.0293 34.9008 28.5215 36.4633 28.5215C37.9737 28.5215 39.0674 29.0033 39.7445 29.9668C40.4281 30.9238 40.6202 32.1934 40.3207 33.7754C40.0082 35.416 39.2953 36.7441 38.182 37.7598C37.0688 38.7754 35.7341 39.2832 34.1781 39.2832ZM34.5004 37.877C35.5681 37.877 36.4633 37.5156 37.1859 36.793C37.9151 36.0703 38.4132 35.1458 38.6801 34.0195C38.8233 33.4596 38.8689 32.9323 38.8168 32.4375C38.7712 31.9362 38.654 31.5 38.4652 31.1289C38.2829 30.7578 37.99 30.4648 37.5863 30.25C37.1892 30.0286 36.7074 29.918 36.141 29.918C35.0668 29.918 34.1651 30.2793 33.4359 31.002C32.7068 31.7246 32.2087 32.6491 31.9418 33.7754C31.7986 34.3353 31.7497 34.8659 31.7953 35.3672C31.8474 35.862 31.9678 36.2949 32.1566 36.666C32.3454 37.0371 32.6417 37.3333 33.0453 37.5547C33.449 37.7695 33.934 37.877 34.5004 37.877ZM48.0645 28.5215C48.7155 28.5215 49.3014 28.6484 49.8223 28.9023C50.3431 29.1497 50.7663 29.5111 51.0918 29.9863C51.4238 30.4616 51.6452 31.041 51.7559 31.7246C51.873 32.4017 51.847 33.1667 51.6777 34.0195C51.5215 34.8268 51.2611 35.5658 50.8965 36.2363C50.5319 36.9004 50.1022 37.4538 49.6074 37.8965C49.1191 38.3392 48.5755 38.681 47.9766 38.9219C47.3841 39.1628 46.7721 39.2832 46.1406 39.2832C44.7734 39.2832 43.7936 38.7559 43.2012 37.7012L43.123 37.7402L42.8594 39H41.2578L44.041 24.7031H45.6426L44.5781 30.123L44.6172 30.084C45.5221 29.0423 46.6712 28.5215 48.0645 28.5215ZM46.082 37.877C46.7656 37.877 47.3971 37.6751 47.9766 37.2715C48.556 36.8678 49.0215 36.3633 49.373 35.7578C49.7311 35.1458 49.9785 34.485 50.1152 33.7754C50.1803 33.3848 50.2129 33.0039 50.2129 32.6328C50.2194 32.2552 50.1673 31.9036 50.0566 31.5781C49.946 31.2526 49.7962 30.9661 49.6074 30.7188C49.4251 30.4714 49.1777 30.276 48.8652 30.1328C48.5527 29.9896 48.1979 29.918 47.8008 29.918C46.8372 29.918 45.9941 30.2923 45.2715 31.041C44.5553 31.7897 44.0768 32.7826 43.8359 34.0195C43.6081 35.1979 43.6927 36.1354 44.0898 36.832C44.4935 37.5286 45.1576 37.877 46.082 37.877ZM56.9703 39.2832C55.4534 39.2832 54.3531 38.8014 53.6695 37.8379C52.9859 36.8743 52.7939 35.6016 53.0934 34.0195C53.4059 32.3789 54.1188 31.054 55.232 30.0449C56.3518 29.0293 57.693 28.5215 59.2555 28.5215C60.7659 28.5215 61.8596 29.0033 62.5367 29.9668C63.2203 30.9238 63.4124 32.1934 63.1129 33.7754C62.8004 35.416 62.0875 36.7441 60.9742 37.7598C59.8609 38.7754 58.5263 39.2832 56.9703 39.2832ZM57.2926 37.877C58.3603 37.877 59.2555 37.5156 59.9781 36.793C60.7073 36.0703 61.2053 35.1458 61.4723 34.0195C61.6155 33.4596 61.6611 32.9323 61.609 32.4375C61.5634 31.9362 61.4462 31.5 61.2574 31.1289C61.0751 30.7578 60.7822 30.4648 60.3785 30.25C59.9814 30.0286 59.4996 29.918 58.9332 29.918C57.859 29.918 56.9573 30.2793 56.2281 31.002C55.499 31.7246 55.0009 32.6491 54.734 33.7754C54.5908 34.3353 54.5419 34.8659 54.5875 35.3672C54.6396 35.862 54.76 36.2949 54.9488 36.666C55.1376 37.0371 55.4339 37.3333 55.8375 37.5547C56.2411 37.7695 56.7262 37.877 57.2926 37.877ZM70.4562 28.5215C70.8339 28.5215 71.1529 28.541 71.4133 28.5801L71.1496 30.1816C70.0884 30.0059 69.1346 30.2565 68.2883 30.9336C67.4419 31.6107 66.9113 32.5059 66.6965 33.6191L65.632 39H64.0305L66.0324 28.8047H67.634L67.2141 30.8164L67.2727 30.7578C67.7023 30.0352 68.1711 29.4818 68.6789 29.0977C69.1932 28.7135 69.7857 28.5215 70.4562 28.5215ZM80.1141 31.8027L79.157 36.7637C79.1049 37.0306 79.0822 37.2487 79.0887 37.418C79.0952 37.5872 79.1733 37.7077 79.323 37.7793C79.4793 37.8444 79.7299 37.8574 80.075 37.8184L79.8602 38.9023C79.5216 39.0326 79.2221 39.0977 78.9617 39.0977C78.4669 39.0977 78.0926 38.9967 77.8387 38.7949C77.5848 38.5931 77.4448 38.235 77.4187 37.7207C76.4617 38.7624 75.2085 39.2832 73.659 39.2832C72.6108 39.2832 71.8296 39 71.3152 38.4336C70.8009 37.8607 70.6349 37.0957 70.8172 36.1387C70.8758 35.8392 70.9669 35.5658 71.0906 35.3184C71.2143 35.071 71.3478 34.8561 71.491 34.6738C71.6408 34.4915 71.8393 34.3223 72.0867 34.166C72.3341 34.0098 72.5652 33.8796 72.7801 33.7754C73.0014 33.6712 73.2911 33.5638 73.6492 33.4531C74.0138 33.3424 74.3328 33.2546 74.6062 33.1895C74.8862 33.1243 75.2573 33.0397 75.7195 32.9355C76.1427 32.8444 76.4715 32.7695 76.7059 32.7109C76.9467 32.6458 77.1974 32.5677 77.4578 32.4766C77.7182 32.3789 77.9135 32.2812 78.0437 32.1836C78.1805 32.0794 78.3009 31.9525 78.4051 31.8027C78.5092 31.653 78.5809 31.4772 78.6199 31.2754C78.698 30.8522 78.6167 30.5202 78.3758 30.2793C78.1349 30.0384 77.6434 29.918 76.9012 29.918C75.9246 29.918 75.1987 30.0807 74.7234 30.4062C74.2547 30.7253 73.9194 31.2624 73.7176 32.0176H72.1355C72.3895 30.9238 72.9135 30.0677 73.7078 29.4492C74.5021 28.8307 75.5991 28.5215 76.9988 28.5215C77.5197 28.5215 77.9852 28.5801 78.3953 28.6973C78.8055 28.8079 79.1635 28.987 79.4695 29.2344C79.782 29.4818 79.9969 29.8236 80.1141 30.2598C80.2312 30.696 80.2312 31.2103 80.1141 31.8027ZM77.8973 34.9961L78.2586 33.4043C77.9852 33.6387 77.1648 33.8958 75.7977 34.1758C74.7039 34.3971 73.8868 34.6608 73.3465 34.9668C72.8126 35.2728 72.4969 35.6895 72.3992 36.2168C72.3016 36.7376 72.3895 37.1445 72.6629 37.4375C72.9428 37.7305 73.3595 37.877 73.9129 37.877C74.922 37.877 75.7846 37.6328 76.5008 37.1445C77.2169 36.6497 77.6824 35.9336 77.8973 34.9961ZM87.2035 30.2012H85.2016L84.0004 36.4023C83.8832 36.9557 83.9548 37.3073 84.2152 37.457C84.4756 37.6068 84.977 37.6556 85.7191 37.6035L85.5434 39.0195C85.2243 39.0846 84.8305 39.1172 84.3617 39.1172C82.6951 39.1172 82.0342 38.2253 82.3793 36.4414L83.6 30.2012H82.1059L82.3793 28.8047H83.8832L84.5473 25.3965H86.1391L85.4848 28.8047H87.4867L87.2035 30.2012ZM90.7969 26.8223C90.5234 26.8223 90.2923 26.7214 90.1035 26.5195C89.9147 26.3177 89.8464 26.0573 89.8984 25.7383C89.9505 25.4779 90.0872 25.2728 90.3086 25.123C90.5299 24.9733 90.7546 24.8984 90.9824 24.8984C91.2559 24.8984 91.487 24.9993 91.6758 25.2012C91.8646 25.403 91.9264 25.6634 91.8613 25.9824C91.8158 26.2428 91.6823 26.4479 91.4609 26.5977C91.2461 26.7474 91.0247 26.8223 90.7969 26.8223ZM89.5176 28.8047H91.1191L89.1172 39H87.5254L89.5176 28.8047ZM96.1383 39.2832C94.6214 39.2832 93.5211 38.8014 92.8375 37.8379C92.1539 36.8743 91.9619 35.6016 92.2613 34.0195C92.5738 32.3789 93.2867 31.054 94.4 30.0449C95.5198 29.0293 96.8609 28.5215 98.4234 28.5215C99.9339 28.5215 101.028 29.0033 101.705 29.9668C102.388 30.9238 102.58 32.1934 102.281 33.7754C101.968 35.416 101.255 36.7441 100.142 37.7598C99.0289 38.7754 97.6943 39.2832 96.1383 39.2832ZM96.4605 37.877C97.5283 37.877 98.4234 37.5156 99.1461 36.793C99.8753 36.0703 100.373 35.1458 100.64 34.0195C100.783 33.4596 100.829 32.9323 100.777 32.4375C100.731 31.9362 100.614 31.5 100.425 31.1289C100.243 30.7578 99.9501 30.4648 99.5465 30.25C99.1494 30.0286 98.6676 29.918 98.1012 29.918C97.027 29.918 96.1253 30.2793 95.3961 31.002C94.6669 31.7246 94.1689 32.6491 93.902 33.7754C93.7587 34.3353 93.7099 34.8659 93.7555 35.3672C93.8076 35.862 93.928 36.2949 94.1168 36.666C94.3056 37.0371 94.6018 37.3333 95.0055 37.5547C95.4091 37.7695 95.8941 37.877 96.4605 37.877ZM110.161 28.5215C110.65 28.5215 111.086 28.5898 111.47 28.7266C111.861 28.8633 112.193 29.0716 112.466 29.3516C112.739 29.6315 112.922 29.9863 113.013 30.416C113.111 30.8457 113.107 31.3535 113.003 31.9395L111.616 39H110.025L111.343 32.2227C111.486 31.513 111.428 30.9531 111.167 30.543C110.907 30.1263 110.405 29.918 109.663 29.918C108.752 29.918 107.958 30.1816 107.28 30.709C106.603 31.2363 106.19 31.9004 106.04 32.7012L104.8 39H103.198L105.2 28.8047H106.802L106.538 30.0156L106.577 29.9766C106.968 29.5599 107.466 29.2148 108.071 28.9414C108.683 28.6615 109.38 28.5215 110.161 28.5215Z" fill="black"/>
</svg>
