<svg width="98" height="293" viewBox="0 0 98 293" fill="none" xmlns="http://www.w3.org/2000/svg">
<path d="M96.7422 0.344726L96.7422 4.86133L77.6016 4.86133L96.7422 22.8057L96.7422 28.2988L81.8984 14.2607L61 29.2998L61 24.0508L78.7979 11.2578L72.0596 4.86133L61 4.86133L61 0.344724L96.7422 0.344726ZM69.96 54.2256L69.96 38.4785L61 35.3291L61 30.666L96.7422 43.874L96.7422 48.8789L61 62.0381L61 57.375L69.96 54.2256ZM73.9395 39.9678L73.9395 52.7852L92.5918 46.4375L92.5918 46.3398L73.9395 39.9678ZM96.7422 61.4756L96.7422 66.2119L67.4453 73.0234L67.4453 73.1211L96.7422 81.1289L96.7422 86.1094L67.4453 94.1172L67.4453 94.2148L96.7422 101.026L96.7422 105.763L61 96.9248L61 91.9199L91.6396 83.668L91.6396 83.5703L61 75.3184L61 70.3135L96.7422 61.4756ZM81.8496 123.193C81.4915 124.658 81.2067 125.757 80.9951 126.489C80.7998 127.238 80.5068 128.174 80.1162 129.297C79.7419 130.436 79.3838 131.283 79.042 131.836C78.7002 132.389 78.2445 133.024 77.6748 133.74C77.1051 134.456 76.4866 134.969 75.8193 135.278C75.1683 135.604 74.3789 135.881 73.4512 136.108C72.5234 136.353 71.4899 136.475 70.3506 136.475C69.0159 136.475 67.7546 136.222 66.5664 135.718C65.3945 135.213 64.3284 134.456 63.3682 133.447C62.4241 132.438 61.6754 131.087 61.1221 129.395C60.5687 127.702 60.292 125.765 60.292 123.584C60.292 119.222 61.415 115.609 63.6611 112.744C65.9072 109.88 69.0241 108.325 73.0117 108.081L73.0117 112.573C71.7422 112.703 70.5947 112.996 69.5693 113.452C68.5439 113.924 67.6243 114.583 66.8105 115.43C66.013 116.292 65.3945 117.407 64.9551 118.774C64.5156 120.158 64.2959 121.761 64.2959 123.584C64.2959 126.481 64.8574 128.605 65.9805 129.956C67.1198 131.307 68.5765 131.982 70.3506 131.982C70.9691 131.982 71.5225 131.942 72.0107 131.86C72.499 131.795 72.9466 131.649 73.3535 131.421C73.7767 131.209 74.1348 130.981 74.4277 130.737C74.737 130.493 75.0299 130.127 75.3066 129.639C75.5996 129.167 75.8437 128.703 76.0391 128.247C76.2506 127.791 76.4704 127.165 76.6982 126.367C76.9424 125.57 77.154 124.813 77.333 124.097C77.512 123.397 77.7318 122.477 77.9922 121.338C78.2038 120.426 78.3991 119.637 78.5781 118.97C78.7572 118.319 79.0013 117.554 79.3105 116.675C79.6198 115.796 79.9372 115.047 80.2627 114.429C80.6045 113.826 81.0358 113.192 81.5566 112.524C82.0775 111.873 82.6309 111.344 83.2168 110.937C83.819 110.547 84.5352 110.221 85.3652 109.961C86.1953 109.701 87.0905 109.57 88.0508 109.57C90.9154 109.57 93.194 110.636 94.8867 112.769C96.5957 114.917 97.4502 117.936 97.4502 121.826C97.4502 125.7 96.4736 128.841 94.5205 131.25C92.5674 133.675 89.776 135.034 86.1465 135.327L86.1465 130.835C88.5879 130.493 90.4108 129.598 91.6152 128.149C92.8359 126.701 93.4463 124.593 93.4463 121.826C93.4463 119.352 93.0068 117.44 92.1279 116.089C91.249 114.754 90.0527 114.087 88.5391 114.087C87.6602 114.087 86.8952 114.225 86.2441 114.502C85.5931 114.795 85.0641 115.145 84.6572 115.552C84.2666 115.975 83.9004 116.577 83.5586 117.358C83.2168 118.14 82.9482 118.872 82.7529 119.556C82.5739 120.239 82.346 121.143 82.0693 122.266C81.9717 122.673 81.8984 122.982 81.8496 123.193ZM86.4883 151.438L86.4883 156.199L76.7471 162.791L76.7471 162.889L86.4883 169.48L86.4883 174.241L74.0615 165.232L61 175.145L61 170.384L71.4004 162.889L71.4004 162.791L61 155.345L61 150.584L74.0615 160.447L86.4883 151.438ZM25.9512 114.229C28.4251 113.724 30.2887 112.536 31.542 110.664C32.8115 108.792 33.4463 106.465 33.4463 103.682C33.4463 102.038 33.1533 100.532 32.5674 99.165C31.9814 97.7978 31.2083 96.6504 30.248 95.7227C29.2878 94.8112 28.1728 94.0299 26.9033 93.3789C25.6338 92.7441 24.3236 92.2803 22.9727 91.9873C21.638 91.7106 20.279 91.5723 18.8955 91.5723C17.4632 91.5723 16.0879 91.6781 14.7695 91.8896C13.4674 92.1175 12.1654 92.5081 10.8633 93.0615C9.56119 93.6312 8.43001 94.3392 7.46972 95.1855C6.52571 96.0319 5.76074 97.1387 5.1748 98.5059C4.58886 99.873 4.29589 101.427 4.29589 103.169C4.29589 105.301 4.7679 107.246 5.71191 109.004C6.65592 110.778 7.99055 112.194 9.71582 113.252C11.4574 114.31 13.4186 114.839 15.5996 114.839L15.5996 103.169L19.6035 103.169L19.6035 119.331L0.999995 119.331L0.999995 116.328L6.05371 114.839L6.05371 114.717C4.10058 113.317 2.65201 111.706 1.708 109.883C0.763993 108.076 0.291987 105.838 0.291988 103.169C0.291988 99.7835 1.09765 96.862 2.70898 94.4043C4.32031 91.9629 6.50944 90.1318 9.27636 88.9111C12.0596 87.6904 15.2659 87.0801 18.8955 87.0801C22.4437 87.0801 25.6256 87.7637 28.4414 89.1309C31.2572 90.5143 33.4626 92.4674 35.0576 94.9902C36.6527 97.5293 37.4502 100.426 37.4502 103.682C37.4502 108.044 36.4248 111.478 34.374 113.984C32.3232 116.491 29.5156 118.07 25.9512 118.721L25.9512 114.229ZM0.999994 126.532L36.7422 126.532L36.7422 141.034C36.7422 144.599 35.8389 147.455 34.0322 149.604C32.2256 151.752 29.7516 152.826 26.6103 152.826C24.1038 152.826 22.1019 152.265 20.6045 151.142C19.1234 150.035 18.1224 148.464 17.6016 146.43L17.5039 146.43C17.2598 147.683 16.6901 148.725 15.7949 149.555C14.916 150.401 13.8988 150.995 12.7432 151.337C11.6038 151.695 10.375 151.972 9.05663 152.167C7.73827 152.362 6.52571 152.468 5.41894 152.484C4.31217 152.517 3.36816 152.598 2.58691 152.729C1.82193 152.859 1.39062 153.062 1.29296 153.339L0.999993 153.339L0.999993 148.48C1.21158 148.253 1.73242 148.098 2.56249 148.017C3.40885 147.951 4.35286 147.927 5.39452 147.943C6.45247 147.96 7.57551 147.87 8.76367 147.675C9.96809 147.496 11.0586 147.211 12.0351 146.82C13.0117 146.446 13.8255 145.787 14.4766 144.843C15.1276 143.899 15.4531 142.711 15.4531 141.278L15.4531 131.049L0.999994 131.049L0.999994 126.532ZM32.7383 131.049L19.457 131.049L19.457 139.984C19.457 140.88 19.4814 141.653 19.5303 142.304C19.5954 142.955 19.7581 143.687 20.0185 144.501C20.279 145.315 20.6289 145.974 21.0684 146.479C21.5241 146.999 22.1751 147.439 23.0215 147.797C23.8841 148.155 24.9095 148.334 26.0976 148.334C27.2858 148.334 28.3031 148.155 29.1494 147.797C30.012 147.439 30.6631 146.999 31.1025 146.479C31.5583 145.974 31.9163 145.315 32.1768 144.501C32.4372 143.687 32.5918 142.955 32.6406 142.304C32.7057 141.653 32.7383 140.88 32.7383 139.984L32.7383 131.049ZM2.68456 184.49C1.08951 181.821 0.291984 178.769 0.291984 175.335C0.291985 171.901 1.08951 168.849 2.68456 166.18C4.29589 163.51 6.50943 161.451 9.32519 160.003C12.1409 158.554 15.331 157.83 18.8955 157.83C22.46 157.83 25.6419 158.554 28.4414 160.003C31.2572 161.451 33.4626 163.51 35.0576 166.18C36.6527 168.849 37.4502 171.901 37.4502 175.335C37.4502 178.769 36.6527 181.821 35.0576 184.49C33.4626 187.16 31.2572 189.218 28.4414 190.667C25.6419 192.116 22.46 192.84 18.8955 192.84C15.331 192.84 12.1409 192.116 9.32519 190.667C6.50943 189.218 4.29589 187.16 2.68456 184.49ZM4.29589 175.335C4.29589 177.516 4.68652 179.453 5.46777 181.146C6.26529 182.838 7.34765 184.197 8.71484 185.223C10.0983 186.248 11.6445 187.021 13.3535 187.542C15.0788 188.063 16.9261 188.323 18.8955 188.323C20.8649 188.323 22.7041 188.063 24.4131 187.542C26.1383 187.021 27.6764 186.248 29.0273 185.223C30.3945 184.197 31.4687 182.838 32.25 181.146C33.0475 179.453 33.4463 177.516 33.4463 175.335C33.4463 173.577 33.1859 171.974 32.665 170.525C32.1442 169.077 31.4362 167.848 30.541 166.839C29.6458 165.846 28.5797 165 27.3428 164.3C26.1058 163.616 24.7793 163.112 23.3633 162.786C21.9473 162.477 20.458 162.322 18.8955 162.322C17.333 162.322 15.8437 162.477 14.4277 162.786C13.0117 163.112 11.6771 163.616 10.4238 164.3C9.18684 165 8.11262 165.846 7.20116 166.839C6.30598 167.848 5.59797 169.077 5.07714 170.525C4.55631 171.974 4.29589 173.577 4.29589 175.335ZM0.999991 206.584L32.7383 206.584L32.7383 194.694L36.7422 194.694L36.7422 222.99L32.7383 222.99L32.7383 211.101L0.999991 211.101L0.999991 206.584ZM0.999989 238.883L32.7383 238.883L32.7383 226.993L36.7422 226.993L36.7422 255.289L32.7383 255.289L32.7383 243.399L0.999989 243.399L0.999989 238.883ZM2.68456 283.828C1.08951 281.159 0.29198 278.107 0.29198 274.673C0.29198 271.239 1.08951 268.187 2.68456 265.518C4.29589 262.848 6.50943 260.789 9.32518 259.341C12.1409 257.892 15.331 257.168 18.8955 257.168C22.4599 257.168 25.6419 257.892 28.4414 259.341C31.2571 260.789 33.4626 262.848 35.0576 265.518C36.6527 268.187 37.4502 271.239 37.4502 274.673C37.4502 278.107 36.6527 281.159 35.0576 283.828C33.4626 286.497 31.2571 288.556 28.4414 290.005C25.6419 291.453 22.4599 292.178 18.8955 292.178C15.331 292.178 12.1409 291.453 9.32518 290.005C6.50943 288.556 4.29589 286.497 2.68456 283.828ZM4.29589 274.673C4.29589 276.854 4.68651 278.791 5.46776 280.483C6.26529 282.176 7.34764 283.535 8.71483 284.561C10.0983 285.586 11.6445 286.359 13.3535 286.88C15.0788 287.401 16.9261 287.661 18.8955 287.661C20.8649 287.661 22.7041 287.401 24.4131 286.88C26.1383 286.359 27.6764 285.586 29.0273 284.561C30.3945 283.535 31.4687 282.176 32.25 280.483C33.0475 278.791 33.4463 276.854 33.4463 274.673C33.4463 272.915 33.1859 271.312 32.665 269.863C32.1442 268.415 31.4362 267.186 30.541 266.177C29.6458 265.184 28.5797 264.338 27.3428 263.638C26.1058 262.954 24.7793 262.45 23.3633 262.124C21.9473 261.815 20.458 261.66 18.8955 261.66C17.333 261.66 15.8437 261.815 14.4277 262.124C13.0117 262.45 11.6771 262.954 10.4238 263.638C9.18684 264.338 8.11262 265.184 7.20116 266.177C6.30598 267.186 5.59797 268.415 5.07714 269.863C4.5563 271.312 4.29589 272.915 4.29589 274.673Z" fill="black"/>
</svg>
