<svg width="126" height="23" viewBox="0 0 126 23" fill="none" xmlns="http://www.w3.org/2000/svg">
<path d="M0.112305 22V0.554688H3.80371L10.5273 18.3672H10.5859L17.3096 0.554688H21.001V22H18.291V4.36328H18.2324L11.7578 22H9.35547L2.88086 4.36328H2.82227V22H0.112305ZM37.4365 16.624H27.9883L26.0986 22H23.3008L31.2256 0.554688H34.2285L42.124 22H39.3262L37.4365 16.624ZM28.8818 14.2363H36.5723L32.7637 3.04492H32.7051L28.8818 14.2363ZM44.4385 22V0.554688H47.7344L58.457 18.2207H58.5156V0.554688H61.2109V22H57.915L47.207 4.39258H47.1484V22H44.4385ZM77.6611 16.624H68.2129L66.3232 22H63.5254L71.4502 0.554688H74.4531L82.3486 22H79.5508L77.6611 16.624ZM69.1064 14.2363H76.7969L72.9883 3.04492H72.9297L69.1064 14.2363ZM100.322 5.94531C100.322 8.15234 99.2139 9.63184 96.9971 10.3838V10.457C98.208 10.6719 99.2041 11.2285 99.9854 12.127C100.776 13.0254 101.172 14.2363 101.172 15.7598C101.172 17.7227 100.518 19.2559 99.209 20.3594C97.9102 21.4531 96.1426 22 93.9062 22H84.6631V0.554688H93.3057C95.4932 0.554688 97.207 1.03809 98.4473 2.00488C99.6973 2.96191 100.322 4.27539 100.322 5.94531ZM87.373 9.51953H93.7305C95.1758 9.51953 96.1865 9.24121 96.7627 8.68457C97.3389 8.11816 97.627 7.30762 97.627 6.25293C97.627 5.2373 97.3242 4.43652 96.7188 3.85059C96.1133 3.25488 95.2148 2.95703 94.0234 2.95703H87.373V9.51953ZM87.373 11.9219V19.5977H94.1699C97.0312 19.5977 98.4619 18.3184 98.4619 15.7598C98.4619 14.5977 98.125 13.6699 97.4512 12.9766C96.7871 12.2734 95.8936 11.9219 94.7705 11.9219H87.373ZM120.054 14.8662C120.054 15.9795 119.893 16.9902 119.57 17.8984C119.248 18.8066 118.76 19.6025 118.105 20.2861C117.451 20.9697 116.592 21.4971 115.527 21.8682C114.463 22.2393 113.232 22.4248 111.836 22.4248C110.439 22.4248 109.209 22.2393 108.145 21.8682C107.08 21.4971 106.221 20.9697 105.566 20.2861C104.912 19.6025 104.424 18.8066 104.102 17.8984C103.779 16.9902 103.618 15.9795 103.618 14.8662V0.554688H106.313V14.8662C106.313 16.6045 106.768 17.8984 107.676 18.748C108.584 19.5977 109.971 20.0225 111.836 20.0225C113.701 20.0225 115.088 19.5977 115.996 18.748C116.904 17.8984 117.358 16.6045 117.358 14.8662V0.554688H120.054V14.8662ZM125.093 21.7656C124.79 22.0586 124.399 22.2051 123.921 22.2051C123.442 22.2051 123.047 22.0586 122.734 21.7656C122.422 21.4629 122.266 21.0625 122.266 20.5645C122.266 20.0762 122.422 19.6807 122.734 19.3779C123.057 19.0654 123.452 18.9092 123.921 18.9092C124.39 18.9092 124.78 19.0654 125.093 19.3779C125.405 19.6807 125.562 20.0762 125.562 20.5645C125.562 21.0625 125.405 21.4629 125.093 21.7656Z" fill="black"/>
</svg>
